<svg xmlns="http://www.w3.org/2000/svg" xmlns:xlink="http://www.w3.org/1999/xlink" width="1500" height="1500" viewBox="0 0 1500 1500">
  <defs>
    <clipPath id="clip-undraw_online_article_re_daq5">
      <rect width="1500" height="1500"/>
    </clipPath>
  </defs>
  <g id="undraw_online_article_re_daq5" clip-path="url(#clip-undraw_online_article_re_daq5)">
    <rect width="1500" height="1500" fill="#fff"/>
    <path id="Path_7202" data-name="Path 7202" d="M771.25,361.874H765.5V204.4a91.144,91.144,0,0,0-91.144-91.144H340.719A91.144,91.144,0,0,0,249.575,204.4v863.936a91.144,91.144,0,0,0,91.144,91.144H674.357a91.144,91.144,0,0,0,91.144-91.144V473.969h5.749Z" transform="translate(-119.574 40.748)" fill="#f0d8c9"/>
    <path id="Path_7203" data-name="Path 7203" d="M667.092,126.647H623.541A32.338,32.338,0,0,1,593.6,171.2H402.464a32.338,32.338,0,0,1-29.94-44.551H331.847a68.065,68.065,0,0,0-68.065,68.065V1057.38a68.065,68.065,0,0,0,68.065,68.065H667.092a68.065,68.065,0,0,0,68.065-68.065h0V194.712a68.065,68.065,0,0,0-68.065-68.065Z" transform="translate(-108.633 51.066)" fill="#fff"/>
    <path id="Path_7204" data-name="Path 7204" d="M622.426,417.234H312.886a7.812,7.812,0,0,1-7.8-7.8V227.348a7.812,7.812,0,0,1,7.8-7.8h309.54a7.812,7.812,0,0,1,7.8,7.8V409.431a7.812,7.812,0,0,1-7.8,7.8Z" transform="translate(-76.818 122.624)" fill="#fff"/>
    <path id="Path_7205" data-name="Path 7205" d="M509.219,276.835a17.218,17.218,0,0,0-24.738-.442l-87.113,87.113a12.3,12.3,0,0,1-17.35.026l-12.9-12.876a17.176,17.176,0,0,0-24.3,0l-24.97,25H597.789V372.09Z" transform="translate(-66.982 162.543)" fill="#e18b25"/>
    <path id="Path_7206" data-name="Path 7206" d="M623.581,421.045H314.041a10.471,10.471,0,0,1-10.459-10.459V228.5a10.471,10.471,0,0,1,10.459-10.459H623.581A10.471,10.471,0,0,1,634.04,228.5V410.586a10.471,10.471,0,0,1-10.459,10.459ZM314.041,223.356a5.154,5.154,0,0,0-5.148,5.148V410.586a5.154,5.154,0,0,0,5.148,5.148H623.581a5.154,5.154,0,0,0,5.148-5.148V228.5a5.154,5.154,0,0,0-5.148-5.148Z" transform="translate(-77.975 121.468)" fill="#f8efe9"/>
    <path id="Path_7207" data-name="Path 7207" d="M490.335,679.613a38.507,38.507,0,1,1,38.507-38.507A38.507,38.507,0,0,1,490.335,679.613Zm0-74.052a35.545,35.545,0,1,0,35.545,35.545,35.545,35.545,0,0,0-35.545-35.545Z" transform="translate(36.217 417.684)" fill="#e8cfbe"/>
    <path id="Path_7208" data-name="Path 7208" d="M464.721,642.957a1.232,1.232,0,0,1-.617-2.3l18.475-10.666L464.1,619.326a1.232,1.232,0,0,1,1.232-2.134l20.322,11.733a1.232,1.232,0,0,1,0,2.134l-20.322,11.733a1.224,1.224,0,0,1-.615.165Z" transform="translate(45.199 428.797)" fill="#e8cfbe"/>
    <path id="Path_7209" data-name="Path 7209" d="M480.113,649.1a1.232,1.232,0,0,1-1.232-1.232V615.842a1.232,1.232,0,0,1,2.463,0v32.023a1.232,1.232,0,0,1-1.232,1.232Z" transform="translate(57.057 426.936)" fill="#e8cfbe"/>
    <path id="Path_680" data-name="Path 680" d="M354.788,375.023a5.785,5.785,0,1,0,0,11.571H512.862a5.785,5.785,0,1,0,0-11.571Z" transform="translate(-42.988 242.386)" fill="#f8efe9"/>
    <path id="Path_680-2" data-name="Path 680" d="M304.288,420.023a5.785,5.785,0,0,0,0,11.571H641.16a5.785,5.785,0,1,0,0-11.571Z" transform="translate(-81.887 277.049)" fill="#f8efe9"/>
    <path id="Path_680-3" data-name="Path 680" d="M304.288,446.023a5.785,5.785,0,1,0,0,11.571H641.16a5.785,5.785,0,1,0,0-11.571Z" transform="translate(-81.887 297.076)" fill="#f8efe9"/>
    <path id="Path_680-4" data-name="Path 680" d="M304.288,472.023a5.785,5.785,0,0,0,0,11.571H641.16a5.785,5.785,0,0,0,0-11.571Z" transform="translate(-81.887 317.104)" fill="#f8efe9"/>
    <path id="Path_680-5" data-name="Path 680" d="M304.288,498.023a5.785,5.785,0,0,0,0,11.571H641.16a5.785,5.785,0,1,0,0-11.571Z" transform="translate(-81.887 337.131)" fill="#f8efe9"/>
    <path id="Path_680-6" data-name="Path 680" d="M304.288,524.023a5.785,5.785,0,1,0,0,11.571H641.16a5.785,5.785,0,1,0,0-11.571Z" transform="translate(-81.887 357.158)" fill="#f8efe9"/>
    <path id="Path_680-7" data-name="Path 680" d="M304.288,550.023a5.785,5.785,0,1,0,0,11.571H641.16a5.785,5.785,0,1,0,0-11.571Z" transform="translate(-81.887 377.186)" fill="#f8efe9"/>
    <path id="Path_7210" data-name="Path 7210" d="M783.877,681.456a16.063,16.063,0,0,0,0-24.629L771.932,446.662l-34.072,7.7,22.525,205.254a16.15,16.15,0,0,0,23.492,21.838Z" transform="translate(256.543 297.568)" fill="#dcaf8b"/>
    <path id="Path_7211" data-name="Path 7211" d="M844.7,697.037a16.063,16.063,0,0,1-.888-24.614l4.325-210.459,34.328,6.464L867.39,674.362A16.15,16.15,0,0,1,844.7,697.037Z" transform="translate(334.066 309.355)" fill="#dcaf8b"/>
    <path id="Path_7212" data-name="Path 7212" d="M602.694,685.321l26.731,0,7.625-62.362-34.361,0Z" transform="translate(594.242 633.854)" fill="#dcaf8b"/>
    <path id="Path_7213" data-name="Path 7213" d="M848.415,766.508l52.645,0h0a33.551,33.551,0,0,1,33.55,33.547v1.092l-86.2,0Z" transform="translate(341.701 543.939)" fill="#551f11"/>
    <path id="Path_7214" data-name="Path 7214" d="M508.467,703.051l26.731,0,7.625-103.11-34.361,0Z" transform="translate(521.66 616.123)" fill="#dcaf8b"/>
    <path id="Path_7215" data-name="Path 7215" d="M754.188,766.508l52.645,0h0a33.551,33.551,0,0,1,33.55,33.548v1.092l-86.2,0Z" transform="translate(269.121 543.939)" fill="#551f11"/>
    <circle id="Ellipse_1132" data-name="Ellipse 1132" cx="43.734" cy="43.734" r="43.734" transform="translate(1096.209 576.748)" fill="#dcaf8b"/>
    <path id="Path_7216" data-name="Path 7216" d="M861.544,427.747s19.437,1.62,21.057,11.338,0,38.875,0,38.875,12.958,38.875,0,48.593-46.974,11.339-46.974,11.339Z" transform="translate(331.852 282.999)" fill="#93a7bc"/>
    <path id="Path_7217" data-name="Path 7217" d="M764.691,552.185l-17.818,29.156s6.479,127.963,8.1,131.2a9.738,9.738,0,0,1,1.62,6.479V736.84l4.859,155.5s-12.958,6.479,3.24,11.339,37.255,6.479,40.495-9.719,3.393-151.14,3.24-155.5l1.62-6.479,25.917-95.567,59.932,132.822,35.635,149.02s53.932,6.228,44.213-14.829S942.867,725.5,942.867,725.5s-4.859-16.2-4.859-19.437-1.62-4.859-1.62-8.1-1.62-12.958-1.62-12.958L923.43,582.961Z" transform="translate(263.486 378.851)" fill="#524611"/>
    <path id="Path_7218" data-name="Path 7218" d="M828.508,405.383s.972,2.417,72.968,11.387c0,0,40.417,26.585,42.036,33.064s-30.776,89.088-30.776,89.088l-3.24,63.171s16.19,27.315,8.1,111.765c-25.311,1.406-127.8-31.915-153.069-46.164-3.84-2.165-12.789,7.378-12.148,5.669,4.859-12.958,0-11.339,4.859-14.578S770.2,542.161,770.2,542.161s-9.719-123.1,1.62-126.343S828.508,405.383,828.508,405.383Z" transform="translate(267.701 265.772)" fill="#93a7bc"/>
    <path id="Path_7219" data-name="Path 7219" d="M793.335,412.212s-19.437-1.62-24.3,14.578-45.354,77.749-37.255,84.229,69.651,29.156,71.27,27.536S793.335,412.212,793.335,412.212Z" transform="translate(251.041 270.998)" fill="#93a7bc"/>
    <path id="Path_7220" data-name="Path 7220" d="M892.745,375.838c-1.835-6.832-4.422-13.662-9.692-18.381a30.174,30.174,0,0,0-19.335-7.614,60.029,60.029,0,0,0-54.14-3.07,9.9,9.9,0,0,0-4.312-4.4l-1.561,13.494-6.027-4.535q-.149,3.993-.3,7.986l-5.524-4.749c-.392,9.427,7.453,17.589,16.323,20.8s18.6,2.621,28.023,2.175c4.654-.22,9.955-.14,13.1,3.3,3.291,3.605,2.67,9.131,2.751,14.012.114,6.864,7.16,3.5,10.694,9.387,1.268,2.11,2.788,4.28,2.742,6.741a15.749,15.749,0,0,1-2.371,6.254c-2.6,5.373-7.775,22.092-5.306,27.527l13.713-7.674S901.629,408.91,892.745,375.838Z" transform="translate(298.125 216.756)" fill="#551f11"/>
    <path id="Path_7221" data-name="Path 7221" d="M1186.672,788.289H643.2a1.77,1.77,0,0,1,0-3.541h543.477a1.77,1.77,0,0,1,0,3.541Z" transform="translate(182.26 557.99)" fill="#cbcbcb"/>
    <path id="Path_7222" data-name="Path 7222" d="M730.157,799.5s-26.442-48.807-90.388-27.7Z" transform="translate(180.984 543.941)" fill="#eedacc"/>
    <path id="Path_7223" data-name="Path 7223" d="M696.528,825.122s-32.7-41.566,14.5-93.42Z" transform="translate(216.207 517.13)" fill="#eedacc"/>
    <g id="Group_208" data-name="Group 208" transform="translate(-20.539 107)">
      <circle id="Ellipse_1133" data-name="Ellipse 1133" cx="78.5" cy="78.5" r="78.5" transform="translate(853 204)" fill="#fff"/>
      <path id="Ellipse_1133_-_Outline" data-name="Ellipse 1133 - Outline" d="M78.68,18.469a60.21,60.21,0,1,0,60.21,60.21,60.278,60.278,0,0,0-60.21-60.21M78.68,0A78.68,78.68,0,1,1,0,78.68,78.68,78.68,0,0,1,78.68,0Z" transform="translate(853 204)" fill="#f0d8c9"/>
      <g id="Group_205" data-name="Group 205" transform="translate(922.02 249.946)">
        <rect id="Rectangle_1267" data-name="Rectangle 1267" width="4.404" height="34.745" rx="2.202" transform="translate(5.383 0)" fill="#e18b25"/>
        <rect id="Rectangle_1268" data-name="Rectangle 1268" width="4.404" height="26.426" rx="2.202" transform="matrix(0.259, -0.966, 0.966, 0.259, 5.216, 35.557)" fill="#e18b25"/>
        <circle id="Ellipse_1134" data-name="Ellipse 1134" cx="8.564" cy="8.564" r="8.564" transform="translate(0 26.426)" fill="#e18b25"/>
      </g>
      <g id="Group_207" data-name="Group 207" transform="translate(926.139 228.38)">
        <circle id="Ellipse_1135" data-name="Ellipse 1135" cx="5.5" cy="5.5" r="5.5" transform="translate(-0.139 -0.38)" fill="#ff8e28"/>
        <circle id="Ellipse_1136" data-name="Ellipse 1136" cx="5.5" cy="5.5" r="5.5" transform="translate(-0.139 97.62)" fill="#ff8e28"/>
      </g>
      <g id="Group_206" data-name="Group 206" transform="translate(877.379 277.139)">
        <circle id="Ellipse_1138" data-name="Ellipse 1138" cx="5.5" cy="5.5" r="5.5" transform="translate(108.621 -0.139) rotate(90)" fill="#ff8e28"/>
        <circle id="Ellipse_1137" data-name="Ellipse 1137" cx="5.5" cy="5.5" r="5.5" transform="translate(10.621 -0.139) rotate(90)" fill="#ff8e28"/>
      </g>
    </g>
    <ellipse id="Ellipse_1140" data-name="Ellipse 1140" cx="5" cy="7.5" rx="5" ry="7.5" transform="matrix(1, 0.017, -0.017, 1, 1113.132, 611.914)" fill="#551f11"/>
    <ellipse id="Ellipse_1141" data-name="Ellipse 1141" cx="4" cy="6" rx="4" ry="6" transform="matrix(1, 0.017, -0.017, 1, 1096.472, 610.015)" fill="#551f11"/>
  </g>
</svg>
